{"accessors" : [{"bufferView" : 0, "byteOffset" : 0, "componentType" : 5123, "count" : 108, "type" : "SCALAR", "max" : [107], "min" : [0]}, {"bufferView" : 1, "byteOffset" : 0, "componentType" : 5126, "count" : 108, "type" : "VEC3", "max" : [-354.931640625, 140.0390625, 0], "min" : [-493.115234375, 0, -20], "name" : "POSITION"}, {"bufferView" : 1, "byteOffset" : 12, "componentType" : 5126, "count" : 108, "type" : "VEC2", "max" : [1, 1], "min" : [0, 0], "name" : "TEXCOORD_0"}, {"bufferView" : 1, "byteOffset" : 20, "componentType" : 5126, "count" : 108, "type" : "VEC3", "max" : [0.9922848343849182, 1.0000044107437134, 0], "min" : [-0.9928756952285767, -1.0000044107437134, 0], "name" : "NORMAL"}, {"bufferView" : 0, "byteOffset" : 216, "componentType" : 5123, "count" : 54, "type" : "SCALAR", "max" : [49], "min" : [0]}, {"bufferView" : 2, "byteOffset" : 0, "componentType" : 5126, "count" : 50, "type" : "VEC3", "max" : [-354.931640625, 140.0390625, 0], "min" : [-493.115234375, 0, 0], "name" : "POSITION"}, {"bufferView" : 2, "byteOffset" : 12, "componentType" : 5126, "count" : 50, "type" : "VEC2", "max" : [0.9867503643035889, 1], "min" : [0, 0], "name" : "TEXCOORD_0"}, {"bufferView" : 2, "byteOffset" : 20, "componentType" : 5126, "count" : 50, "type" : "VEC3", "max" : [0, 0, 1.0000044107437134], "min" : [0, 0, 1.0000044107437134], "name" : "NORMAL"}, {"bufferView" : 0, "byteOffset" : 324, "componentType" : 5123, "count" : 54, "type" : "SCALAR", "max" : [47], "min" : [0]}, {"bufferView" : 3, "byteOffset" : 0, "componentType" : 5126, "count" : 48, "type" : "VEC3", "max" : [-354.931640625, 140.0390625, -20], "min" : [-493.115234375, 0, -20], "name" : "POSITION"}, {"bufferView" : 3, "byteOffset" : 12, "componentType" : 5126, "count" : 48, "type" : "VEC2", "max" : [0.9867503643035889, 1], "min" : [0, 0], "name" : "TEXCOORD_0"}, {"bufferView" : 3, "byteOffset" : 20, "componentType" : 5126, "count" : 48, "type" : "VEC3", "max" : [0, 0, -1.0000044107437134], "min" : [0, 0, -1.0000044107437134], "name" : "NORMAL"}, {"bufferView" : 0, "byteOffset" : 432, "componentType" : 5123, "count" : 870, "type" : "SCALAR", "max" : [869], "min" : [0]}, {"bufferView" : 4, "byteOffset" : 0, "componentType" : 5126, "count" : 870, "type" : "VEC3", "max" : [-232.275390625, 140.0390625, 0], "min" : [-337.451171875, 0, -20], "name" : "POSITION"}, {"bufferView" : 4, "byteOffset" : 12, "componentType" : 5126, "count" : 870, "type" : "VEC2", "max" : [1, 1], "min" : [0, 0], "name" : "TEXCOORD_0"}, {"bufferView" : 4, "byteOffset" : 20, "componentType" : 5126, "count" : 870, "type" : "VEC3", "max" : [1.0000044107437134, 1.0000044107437134, 0], "min" : [-1.0000044107437134, -1.0000044107437134, 0], "name" : "NORMAL"}, {"bufferView" : 0, "byteOffset" : 2172, "componentType" : 5123, "count" : 441, "type" : "SCALAR", "max" : [386], "min" : [0]}, {"bufferView" : 5, "byteOffset" : 0, "componentType" : 5126, "count" : 387, "type" : "VEC3", "max" : [-232.275390625, 140.0390625, 0], "min" : [-337.451171875, 0, 0], "name" : "POSITION"}, {"bufferView" : 5, "byteOffset" : 12, "componentType" : 5126, "count" : 387, "type" : "VEC2", "max" : [0.7510460019111633, 1], "min" : [0, 0], "name" : "TEXCOORD_0"}, {"bufferView" : 5, "byteOffset" : 20, "componentType" : 5126, "count" : 387, "type" : "VEC3", "max" : [0, 0, 1.0000044107437134], "min" : [0, 0, 1.0000044107437134], "name" : "NORMAL"}, {"bufferView" : 0, "byteOffset" : 3056, "componentType" : 5123, "count" : 441, "type" : "SCALAR", "max" : [381], "min" : [0]}, {"bufferView" : 6, "byteOffset" : 0, "componentType" : 5126, "count" : 382, "type" : "VEC3", "max" : [-232.275390625, 140.0390625, -20], "min" : [-337.451171875, 0, -20], "name" : "POSITION"}, {"bufferView" : 6, "byteOffset" : 12, "componentType" : 5126, "count" : 382, "type" : "VEC2", "max" : [0.7510460019111633, 1], "min" : [0, 0], "name" : "TEXCOORD_0"}, {"bufferView" : 6, "byteOffset" : 20, "componentType" : 5126, "count" : 382, "type" : "VEC3", "max" : [0, 0, -1.0000044107437134], "min" : [0, 0, -1.0000044107437134], "name" : "NORMAL"}, {"bufferView" : 0, "byteOffset" : 3940, "componentType" : 5123, "count" : 834, "type" : "SCALAR", "max" : [833], "min" : [0]}, {"bufferView" : 7, "byteOffset" : 0, "componentType" : 5126, "count" : 834, "type" : "VEC3", "max" : [-80.810546875, 142.3828125, 0], "min" : [-218.017578125, -2.44140625, -20], "name" : "POSITION"}, {"bufferView" : 7, "byteOffset" : 12, "componentType" : 5126, "count" : 834, "type" : "VEC2", "max" : [1, 1], "min" : [0, 0], "name" : "TEXCOORD_0"}, {"bufferView" : 7, "byteOffset" : 20, "componentType" : 5126, "count" : 834, "type" : "VEC3", "max" : [0.9999990463256836, 1.0000008344650269, 0], "min" : [-1.0000019073486328, -0.9999969005584717, 0], "name" : "NORMAL"}, {"bufferView" : 0, "byteOffset" : 5608, "componentType" : 5123, "count" : 417, "type" : "SCALAR", "max" : [371], "min" : [0]}, {"bufferView" : 8, "byteOffset" : 0, "componentType" : 5126, "count" : 372, "type" : "VEC3", "max" : [-80.810546875, 142.3828125, 0], "min" : [-218.017578125, -2.44140625, 0], "name" : "POSITION"}, {"bufferView" : 8, "byteOffset" : 12, "componentType" : 5126, "count" : 372, "type" : "VEC2", "max" : [0.9474039077758789, 1], "min" : [0, 0], "name" : "TEXCOORD_0"}, {"bufferView" : 8, "byteOffset" : 20, "componentType" : 5126, "count" : 372, "type" : "VEC3", "max" : [0, 0, 1.0000044107437134], "min" : [0, 0, 1.0000044107437134], "name" : "NORMAL"}, {"bufferView" : 0, "byteOffset" : 6444, "componentType" : 5123, "count" : 417, "type" : "SCALAR", "max" : [383], "min" : [0]}, {"bufferView" : 9, "byteOffset" : 0, "componentType" : 5126, "count" : 384, "type" : "VEC3", "max" : [-80.810546875, 142.3828125, -20], "min" : [-218.017578125, -2.44140625, -20], "name" : "POSITION"}, {"bufferView" : 9, "byteOffset" : 12, "componentType" : 5126, "count" : 384, "type" : "VEC2", "max" : [0.9474039077758789, 1], "min" : [0, 0], "name" : "TEXCOORD_0"}, {"bufferView" : 9, "byteOffset" : 20, "componentType" : 5126, "count" : 384, "type" : "VEC3", "max" : [0, 0, -1.0000044107437134], "min" : [0, 0, -1.0000044107437134], "name" : "NORMAL"}, {"bufferView" : 0, "byteOffset" : 7280, "componentType" : 5123, "count" : 396, "type" : "SCALAR", "max" : [395], "min" : [0]}, {"bufferView" : 10, "byteOffset" : 0, "componentType" : 5126, "count" : 396, "type" : "VEC3", "max" : [56.591796875, 140.0390625, 0], "min" : [-59.228515625, -2.44140625, -20], "name" : "POSITION"}, {"bufferView" : 10, "byteOffset" : 12, "componentType" : 5126, "count" : 396, "type" : "VEC2", "max" : [1, 1], "min" : [0, 0], "name" : "TEXCOORD_0"}, {"bufferView" : 10, "byteOffset" : 20, "componentType" : 5126, "count" : 396, "type" : "VEC3", "max" : [1.0000044107437134, 1.0000044107437134, 0], "min" : [-1.0000044107437134, -1.0000044107437134, 0], "name" : "NORMAL"}, {"bufferView" : 0, "byteOffset" : 8072, "componentType" : 5123, "count" : 192, "type" : "SCALAR", "max" : [175], "min" : [0]}, {"bufferView" : 11, "byteOffset" : 0, "componentType" : 5126, "count" : 176, "type" : "VEC3", "max" : [56.591796875, 140.0390625, 0], "min" : [-59.228515625, -2.44140625, 0], "name" : "POSITION"}, {"bufferView" : 11, "byteOffset" : 12, "componentType" : 5126, "count" : 176, "type" : "VEC2", "max" : [0.8128855228424072, 1], "min" : [0, 0], "name" : "TEXCOORD_0"}, {"bufferView" : 11, "byteOffset" : 20, "componentType" : 5126, "count" : 176, "type" : "VEC3", "max" : [0, 0, 1.0000044107437134], "min" : [0, 0, 1.0000044107437134], "name" : "NORMAL"}, {"bufferView" : 0, "byteOffset" : 8456, "componentType" : 5123, "count" : 192, "type" : "SCALAR", "max" : [157], "min" : [0]}, {"bufferView" : 12, "byteOffset" : 0, "componentType" : 5126, "count" : 158, "type" : "VEC3", "max" : [56.591796875, 140.0390625, -20], "min" : [-59.228515625, -2.44140625, -20], "name" : "POSITION"}, {"bufferView" : 12, "byteOffset" : 12, "componentType" : 5126, "count" : 158, "type" : "VEC2", "max" : [0.8128855228424072, 1], "min" : [0, 0], "name" : "TEXCOORD_0"}, {"bufferView" : 12, "byteOffset" : 20, "componentType" : 5126, "count" : 158, "type" : "VEC3", "max" : [0, 0, -1.0000044107437134], "min" : [0, 0, -1.0000044107437134], "name" : "NORMAL"}, {"bufferView" : 0, "byteOffset" : 8840, "componentType" : 5123, "count" : 48, "type" : "SCALAR", "max" : [47], "min" : [0]}, {"bufferView" : 13, "byteOffset" : 0, "componentType" : 5126, "count" : 48, "type" : "VEC3", "max" : [185.400390625, 140.0390625, 0], "min" : [74.072265625, 0, -20], "name" : "POSITION"}, {"bufferView" : 13, "byteOffset" : 12, "componentType" : 5126, "count" : 48, "type" : "VEC2", "max" : [1, 1], "min" : [0, 0], "name" : "TEXCOORD_0"}, {"bufferView" : 13, "byteOffset" : 20, "componentType" : 5126, "count" : 48, "type" : "VEC3", "max" : [1.0000044107437134, 1.0000044107437134, 0], "min" : [-1.0000044107437134, -1.0000044107437134, 0], "name" : "NORMAL"}, {"bufferView" : 0, "byteOffset" : 8936, "componentType" : 5123, "count" : 18, "type" : "SCALAR", "max" : [15], "min" : [0]}, {"bufferView" : 14, "byteOffset" : 0, "componentType" : 5126, "count" : 16, "type" : "VEC3", "max" : [185.400390625, 140.0390625, 0], "min" : [74.072265625, 0, 0], "name" : "POSITION"}, {"bufferView" : 14, "byteOffset" : 12, "componentType" : 5126, "count" : 16, "type" : "VEC2", "max" : [0.7949790954589844, 1], "min" : [0, 0], "name" : "TEXCOORD_0"}, {"bufferView" : 14, "byteOffset" : 20, "componentType" : 5126, "count" : 16, "type" : "VEC3", "max" : [0, 1, 1.0000044107437134], "min" : [0, 0, 0], "name" : "NORMAL"}, {"bufferView" : 0, "byteOffset" : 8972, "componentType" : 5123, "count" : 18, "type" : "SCALAR", "max" : [15], "min" : [0]}, {"bufferView" : 15, "byteOffset" : 0, "componentType" : 5126, "count" : 16, "type" : "VEC3", "max" : [185.400390625, 140.0390625, -20], "min" : [74.072265625, 0, -20], "name" : "POSITION"}, {"bufferView" : 15, "byteOffset" : 12, "componentType" : 5126, "count" : 16, "type" : "VEC2", "max" : [0.7949790954589844, 1], "min" : [0, 0], "name" : "TEXCOORD_0"}, {"bufferView" : 15, "byteOffset" : 20, "componentType" : 5126, "count" : 16, "type" : "VEC3", "max" : [0, 1, 0], "min" : [0, 0, -1.0000044107437134], "name" : "NORMAL"}, {"bufferView" : 0, "byteOffset" : 9008, "componentType" : 5123, "count" : 396, "type" : "SCALAR", "max" : [395], "min" : [0]}, {"bufferView" : 16, "byteOffset" : 0, "componentType" : 5126, "count" : 396, "type" : "VEC3", "max" : [373.583984375, 140.0390625, 0], "min" : [257.763671875, -2.44140625, -20], "name" : "POSITION"}, {"bufferView" : 16, "byteOffset" : 12, "componentType" : 5126, "count" : 396, "type" : "VEC2", "max" : [1, 1], "min" : [0, 0], "name" : "TEXCOORD_0"}, {"bufferView" : 16, "byteOffset" : 20, "componentType" : 5126, "count" : 396, "type" : "VEC3", "max" : [1.0000044107437134, 1.0000044107437134, 0], "min" : [-1.0000044107437134, -1.0000044107437134, 0], "name" : "NORMAL"}, {"bufferView" : 0, "byteOffset" : 9800, "componentType" : 5123, "count" : 192, "type" : "SCALAR", "max" : [175], "min" : [0]}, {"bufferView" : 17, "byteOffset" : 0, "componentType" : 5126, "count" : 176, "type" : "VEC3", "max" : [373.583984375, 140.0390625, 0], "min" : [257.763671875, -2.44140625, 0], "name" : "POSITION"}, {"bufferView" : 17, "byteOffset" : 12, "componentType" : 5126, "count" : 176, "type" : "VEC2", "max" : [0.8128855228424072, 1], "min" : [0, 0], "name" : "TEXCOORD_0"}, {"bufferView" : 17, "byteOffset" : 20, "componentType" : 5126, "count" : 176, "type" : "VEC3", "max" : [0, 0, 1.0000044107437134], "min" : [0, 0, 1.0000044107437134], "name" : "NORMAL"}, {"bufferView" : 0, "byteOffset" : 10184, "componentType" : 5123, "count" : 192, "type" : "SCALAR", "max" : [157], "min" : [0]}, {"bufferView" : 18, "byteOffset" : 0, "componentType" : 5126, "count" : 158, "type" : "VEC3", "max" : [373.583984375, 140.0390625, -20], "min" : [257.763671875, -2.44140625, -20], "name" : "POSITION"}, {"bufferView" : 18, "byteOffset" : 12, "componentType" : 5126, "count" : 158, "type" : "VEC2", "max" : [0.8128855228424072, 1], "min" : [0, 0], "name" : "TEXCOORD_0"}, {"bufferView" : 18, "byteOffset" : 20, "componentType" : 5126, "count" : 158, "type" : "VEC3", "max" : [0, 0, -1.0000044107437134], "min" : [0, 0, -1.0000044107437134], "name" : "NORMAL"}, {"bufferView" : 0, "byteOffset" : 10568, "componentType" : 5123, "count" : 978, "type" : "SCALAR", "max" : [977], "min" : [0]}, {"bufferView" : 19, "byteOffset" : 0, "componentType" : 5126, "count" : 978, "type" : "VEC3", "max" : [493.115234375, 142.3828125, 0], "min" : [397.021484375, -2.44140625, -20], "name" : "POSITION"}, {"bufferView" : 19, "byteOffset" : 12, "componentType" : 5126, "count" : 978, "type" : "VEC2", "max" : [1, 1], "min" : [0, 0], "name" : "TEXCOORD_0"}, {"bufferView" : 19, "byteOffset" : 20, "componentType" : 5126, "count" : 978, "type" : "VEC3", "max" : [1.0000044107437134, 1.0000044107437134, 0], "min" : [-1.0000044107437134, -0.9999977946281433, 0], "name" : "NORMAL"}, {"bufferView" : 0, "byteOffset" : 12524, "componentType" : 5123, "count" : 483, "type" : "SCALAR", "max" : [436], "min" : [0]}, {"bufferView" : 20, "byteOffset" : 0, "componentType" : 5126, "count" : 437, "type" : "VEC3", "max" : [493.115234375, 142.3828125, 0], "min" : [397.021484375, -2.44140625, 0], "name" : "POSITION"}, {"bufferView" : 20, "byteOffset" : 12, "componentType" : 5126, "count" : 437, "type" : "VEC2", "max" : [0.6635199189186096, 1], "min" : [0, 0], "name" : "TEXCOORD_0"}, {"bufferView" : 20, "byteOffset" : 20, "componentType" : 5126, "count" : 437, "type" : "VEC3", "max" : [0, 0, 1.0000044107437134], "min" : [0, 0, 1.0000044107437134], "name" : "NORMAL"}, {"bufferView" : 0, "byteOffset" : 13492, "componentType" : 5123, "count" : 483, "type" : "SCALAR", "max" : [381], "min" : [0]}, {"bufferView" : 21, "byteOffset" : 0, "componentType" : 5126, "count" : 382, "type" : "VEC3", "max" : [493.115234375, 142.3828125, -20], "min" : [397.021484375, -2.44140625, -20], "name" : "POSITION"}, {"bufferView" : 21, "byteOffset" : 12, "componentType" : 5126, "count" : 382, "type" : "VEC2", "max" : [0.6635199189186096, 1], "min" : [0, 0], "name" : "TEXCOORD_0"}, {"bufferView" : 21, "byteOffset" : 20, "componentType" : 5126, "count" : 382, "type" : "VEC3", "max" : [0, 0, -1.0000044107437134], "min" : [0, 0, -1.0000044107437134], "name" : "NORMAL"}], "asset" : {"generator" : "Aspose.3D 24.1.0", "version" : "2.0"}, "buffers" : [{"uri" : "data:application/octet-stream;base64,", "byteLength" : 245716}], "bufferViews" : [{"buffer" : 0, "byteOffset" : 0, "byteLength" : 14460, "target" : 34963}, {"buffer" : 0, "byteOffset" : 14464, "byteLength" : 3456, "byteStride" : 32, "target" : 34962}, {"buffer" : 0, "byteOffset" : 17924, "byteLength" : 1728, "byteStride" : 32, "target" : 34962}, {"buffer" : 0, "byteOffset" : 19656, "byteLength" : 1728, "byteStride" : 32, "target" : 34962}, {"buffer" : 0, "byteOffset" : 21388, "byteLength" : 27840, "byteStride" : 32, "target" : 34962}, {"buffer" : 0, "byteOffset" : 49232, "byteLength" : 14112, "byteStride" : 32, "target" : 34962}, {"buffer" : 0, "byteOffset" : 63348, "byteLength" : 14112, "byteStride" : 32, "target" : 34962}, {"buffer" : 0, "byteOffset" : 77464, "byteLength" : 26688, "byteStride" : 32, "target" : 34962}, {"buffer" : 0, "byteOffset" : 104156, "byteLength" : 13344, "byteStride" : 32, "target" : 34962}, {"buffer" : 0, "byteOffset" : 117504, "byteLength" : 13344, "byteStride" : 32, "target" : 34962}, {"buffer" : 0, "byteOffset" : 130852, "byteLength" : 12672, "byteStride" : 32, "target" : 34962}, {"buffer" : 0, "byteOffset" : 143528, "byteLength" : 6144, "byteStride" : 32, "target" : 34962}, {"buffer" : 0, "byteOffset" : 149676, "byteLength" : 6144, "byteStride" : 32, "target" : 34962}, {"buffer" : 0, "byteOffset" : 155824, "byteLength" : 1536, "byteStride" : 32, "target" : 34962}, {"buffer" : 0, "byteOffset" : 157364, "byteLength" : 576, "byteStride" : 32, "target" : 34962}, {"buffer" : 0, "byteOffset" : 157944, "byteLength" : 576, "byteStride" : 32, "target" : 34962}, {"buffer" : 0, "byteOffset" : 158524, "byteLength" : 12672, "byteStride" : 32, "target" : 34962}, {"buffer" : 0, "byteOffset" : 171200, "byteLength" : 6144, "byteStride" : 32, "target" : 34962}, {"buffer" : 0, "byteOffset" : 177348, "byteLength" : 6144, "byteStride" : 32, "target" : 34962}, {"buffer" : 0, "byteOffset" : 183496, "byteLength" : 31296, "byteStride" : 32, "target" : 34962}, {"buffer" : 0, "byteOffset" : 214796, "byteLength" : 15456, "byteStride" : 32, "target" : 34962}, {"buffer" : 0, "byteOffset" : 230256, "byteLength" : 15456, "byteStride" : 32, "target" : 34962}], "meshes" : [{"primitives" : [{"attributes" : {"POSITION" : 1, "TEXCOORD_0" : 2, "NORMAL" : 3}, "indices" : 0, "mode" : 4}], "name" : ""}, {"primitives" : [{"attributes" : {"POSITION" : 5, "TEXCOORD_0" : 6, "NORMAL" : 7}, "indices" : 4, "mode" : 4}], "name" : ""}, {"primitives" : [{"attributes" : {"POSITION" : 9, "TEXCOORD_0" : 10, "NORMAL" : 11}, "indices" : 8, "mode" : 4}], "name" : ""}, {"primitives" : [{"attributes" : {"POSITION" : 13, "TEXCOORD_0" : 14, "NORMAL" : 15}, "indices" : 12, "mode" : 4}], "name" : ""}, {"primitives" : [{"attributes" : {"POSITION" : 17, "TEXCOORD_0" : 18, "NORMAL" : 19}, "indices" : 16, "mode" : 4}], "name" : ""}, {"primitives" : [{"attributes" : {"POSITION" : 21, "TEXCOORD_0" : 22, "NORMAL" : 23}, "indices" : 20, "mode" : 4}], "name" : ""}, {"primitives" : [{"attributes" : {"POSITION" : 25, "TEXCOORD_0" : 26, "NORMAL" : 27}, "indices" : 24, "mode" : 4}], "name" : ""}, {"primitives" : [{"attributes" : {"POSITION" : 29, "TEXCOORD_0" : 30, "NORMAL" : 31}, "indices" : 28, "mode" : 4}], "name" : ""}, {"primitives" : [{"attributes" : {"POSITION" : 33, "TEXCOORD_0" : 34, "NORMAL" : 35}, "indices" : 32, "mode" : 4}], "name" : ""}, {"primitives" : [{"attributes" : {"POSITION" : 37, "TEXCOORD_0" : 38, "NORMAL" : 39}, "indices" : 36, "mode" : 4}], "name" : ""}, {"primitives" : [{"attributes" : {"POSITION" : 41, "TEXCOORD_0" : 42, "NORMAL" : 43}, "indices" : 40, "mode" : 4}], "name" : ""}, {"primitives" : [{"attributes" : {"POSITION" : 45, "TEXCOORD_0" : 46, "NORMAL" : 47}, "indices" : 44, "mode" : 4}], "name" : ""}, {"primitives" : [{"attributes" : {"POSITION" : 49, "TEXCOORD_0" : 50, "NORMAL" : 51}, "indices" : 48, "mode" : 4}], "name" : ""}, {"primitives" : [{"attributes" : {"POSITION" : 53, "TEXCOORD_0" : 54, "NORMAL" : 55}, "indices" : 52, "mode" : 4}], "name" : ""}, {"primitives" : [{"attributes" : {"POSITION" : 57, "TEXCOORD_0" : 58, "NORMAL" : 59}, "indices" : 56, "mode" : 4}], "name" : ""}, {"primitives" : [{"attributes" : {"POSITION" : 61, "TEXCOORD_0" : 62, "NORMAL" : 63}, "indices" : 60, "mode" : 4}], "name" : ""}, {"primitives" : [{"attributes" : {"POSITION" : 65, "TEXCOORD_0" : 66, "NORMAL" : 67}, "indices" : 64, "mode" : 4}], "name" : ""}, {"primitives" : [{"attributes" : {"POSITION" : 69, "TEXCOORD_0" : 70, "NORMAL" : 71}, "indices" : 68, "mode" : 4}], "name" : ""}, {"primitives" : [{"attributes" : {"POSITION" : 73, "TEXCOORD_0" : 74, "NORMAL" : 75}, "indices" : 72, "mode" : 4}], "name" : ""}, {"primitives" : [{"attributes" : {"POSITION" : 77, "TEXCOORD_0" : 78, "NORMAL" : 79}, "indices" : 76, "mode" : 4}], "name" : ""}, {"primitives" : [{"attributes" : {"POSITION" : 81, "TEXCOORD_0" : 82, "NORMAL" : 83}, "indices" : 80, "mode" : 4}], "name" : ""}], "nodes" : [{"mesh" : 0, "name" : "A"}, {"mesh" : 1, "name" : "Cap_1"}, {"mesh" : 2, "name" : "Cap_2"}, {"mesh" : 3, "name" : "B"}, {"mesh" : 4, "name" : "Cap_1_1"}, {"mesh" : 5, "name" : "Cap_2_1"}, {"mesh" : 6, "name" : "O"}, {"mesh" : 7, "name" : "Cap_1_2"}, {"mesh" : 8, "name" : "Cap_2_2"}, {"mesh" : 9, "name" : "U"}, {"mesh" : 10, "name" : "Cap_1_3"}, {"mesh" : 11, "name" : "Cap_2_3"}, {"mesh" : 12, "name" : "T"}, {"mesh" : 13, "name" : "Cap_1_4"}, {"mesh" : 14, "name" : "Cap_2_4"}, {"mesh" : 15, "name" : "U_1"}, {"mesh" : 16, "name" : "Cap_1_5"}, {"mesh" : 17, "name" : "Cap_2_5"}, {"mesh" : 18, "name" : "S"}, {"mesh" : 19, "name" : "Cap_1_6"}, {"mesh" : 20, "name" : "Cap_2_6"}], "scene" : 0, "scenes" : [{"nodes" : [0, 1, 2, 3, 4, 5, 6, 7, 8, 9, 10, 11, 12, 13, 14, 15, 16, 17, 18, 19, 20]}]}