{"accessors" : [{"bufferView" : 0, "byteOffset" : 0, "componentType" : 5123, "count" : 540, "type" : "SCALAR", "max" : [538], "min" : [0]}, {"bufferView" : 1, "byteOffset" : 0, "componentType" : 5126, "count" : 539, "type" : "VEC3", "max" : [-232.666015625, 142.3828125, 0], "min" : [-341.845703125, -2.44140625, -20], "name" : "POSITION"}, {"bufferView" : 1, "byteOffset" : 12, "componentType" : 5126, "count" : 539, "type" : "VEC2", "max" : [1, 1], "min" : [0, 0], "name" : "TEXCOORD_0"}, {"bufferView" : 1, "byteOffset" : 20, "componentType" : 5126, "count" : 539, "type" : "VEC3", "max" : [1.0000044107437134, 0.9999997615814209, 0], "min" : [-1.000003695487976, -1.000003695487976, 0], "name" : "NORMAL"}, {"bufferView" : 0, "byteOffset" : 1080, "componentType" : 5123, "count" : 264, "type" : "SCALAR", "max" : [233], "min" : [0]}, {"bufferView" : 2, "byteOffset" : 0, "componentType" : 5126, "count" : 234, "type" : "VEC3", "max" : [-232.666015625, 142.3828125, 0], "min" : [-341.845703125, -2.44140625, 0], "name" : "POSITION"}, {"bufferView" : 2, "byteOffset" : 12, "componentType" : 5126, "count" : 234, "type" : "VEC2", "max" : [0.7538772821426392, 1], "min" : [0, 0], "name" : "TEXCOORD_0"}, {"bufferView" : 2, "byteOffset" : 20, "componentType" : 5126, "count" : 234, "type" : "VEC3", "max" : [0, 1, 1.0000044107437134], "min" : [0, 0, 0], "name" : "NORMAL"}, {"bufferView" : 0, "byteOffset" : 1608, "componentType" : 5123, "count" : 264, "type" : "SCALAR", "max" : [207], "min" : [0]}, {"bufferView" : 3, "byteOffset" : 0, "componentType" : 5126, "count" : 208, "type" : "VEC3", "max" : [-232.666015625, 142.3828125, -20], "min" : [-341.845703125, -2.44140625, -20], "name" : "POSITION"}, {"bufferView" : 3, "byteOffset" : 12, "componentType" : 5126, "count" : 208, "type" : "VEC2", "max" : [0.7538772821426392, 1], "min" : [0, 0], "name" : "TEXCOORD_0"}, {"bufferView" : 3, "byteOffset" : 20, "componentType" : 5126, "count" : 208, "type" : "VEC3", "max" : [0, 1, 0], "min" : [0, 0, -1.0000044107437134], "name" : "NORMAL"}, {"bufferView" : 0, "byteOffset" : 2136, "componentType" : 5123, "count" : 834, "type" : "SCALAR", "max" : [833], "min" : [0]}, {"bufferView" : 4, "byteOffset" : 0, "componentType" : 5126, "count" : 834, "type" : "VEC3", "max" : [-79.833984375, 142.3828125, 0], "min" : [-217.041015625, -2.44140625, -20], "name" : "POSITION"}, {"bufferView" : 4, "byteOffset" : 12, "componentType" : 5126, "count" : 834, "type" : "VEC2", "max" : [1, 1], "min" : [0, 0], "name" : "TEXCOORD_0"}, {"bufferView" : 4, "byteOffset" : 20, "componentType" : 5126, "count" : 834, "type" : "VEC3", "max" : [0.9999990463256836, 1.0000008344650269, 0], "min" : [-1.0000019073486328, -0.9999969005584717, 0], "name" : "NORMAL"}, {"bufferView" : 0, "byteOffset" : 3804, "componentType" : 5123, "count" : 417, "type" : "SCALAR", "max" : [371], "min" : [0]}, {"bufferView" : 5, "byteOffset" : 0, "componentType" : 5126, "count" : 372, "type" : "VEC3", "max" : [-79.833984375, 142.3828125, 0], "min" : [-217.041015625, -2.44140625, 0], "name" : "POSITION"}, {"bufferView" : 5, "byteOffset" : 12, "componentType" : 5126, "count" : 372, "type" : "VEC2", "max" : [0.9474039077758789, 1], "min" : [0, 0], "name" : "TEXCOORD_0"}, {"bufferView" : 5, "byteOffset" : 20, "componentType" : 5126, "count" : 372, "type" : "VEC3", "max" : [0, 0, 1.0000044107437134], "min" : [0, 0, 1.0000044107437134], "name" : "NORMAL"}, {"bufferView" : 0, "byteOffset" : 4640, "componentType" : 5123, "count" : 417, "type" : "SCALAR", "max" : [383], "min" : [0]}, {"bufferView" : 6, "byteOffset" : 0, "componentType" : 5126, "count" : 384, "type" : "VEC3", "max" : [-79.833984375, 142.3828125, -20], "min" : [-217.041015625, -2.44140625, -20], "name" : "POSITION"}, {"bufferView" : 6, "byteOffset" : 12, "componentType" : 5126, "count" : 384, "type" : "VEC2", "max" : [0.9474039077758789, 1], "min" : [0, 0], "name" : "TEXCOORD_0"}, {"bufferView" : 6, "byteOffset" : 20, "componentType" : 5126, "count" : 384, "type" : "VEC3", "max" : [0, 0, -1.0000044107437134], "min" : [0, 0, -1.0000044107437134], "name" : "NORMAL"}, {"bufferView" : 0, "byteOffset" : 5476, "componentType" : 5123, "count" : 60, "type" : "SCALAR", "max" : [59], "min" : [0]}, {"bufferView" : 7, "byteOffset" : 0, "componentType" : 5126, "count" : 60, "type" : "VEC3", "max" : [24.365234375, 140.0390625, 0], "min" : [-56.591796875, 0, -20], "name" : "POSITION"}, {"bufferView" : 7, "byteOffset" : 12, "componentType" : 5126, "count" : 60, "type" : "VEC2", "max" : [1, 1], "min" : [0, 0], "name" : "TEXCOORD_0"}, {"bufferView" : 7, "byteOffset" : 20, "componentType" : 5126, "count" : 60, "type" : "VEC3", "max" : [1.0000044107437134, 1.0000044107437134, 0], "min" : [-1.0000044107437134, -1.0000044107437134, 0], "name" : "NORMAL"}, {"bufferView" : 0, "byteOffset" : 5596, "componentType" : 5123, "count" : 24, "type" : "SCALAR", "max" : [19], "min" : [0]}, {"bufferView" : 8, "byteOffset" : 0, "componentType" : 5126, "count" : 20, "type" : "VEC3", "max" : [24.365234375, 140.0390625, 0], "min" : [-56.591796875, 0, 0], "name" : "POSITION"}, {"bufferView" : 8, "byteOffset" : 12, "componentType" : 5126, "count" : 20, "type" : "VEC2", "max" : [0.5781031847000122, 1], "min" : [0, 0], "name" : "TEXCOORD_0"}, {"bufferView" : 8, "byteOffset" : 20, "componentType" : 5126, "count" : 20, "type" : "VEC3", "max" : [0, 0, 1.0000044107437134], "min" : [0, 0, 1.0000044107437134], "name" : "NORMAL"}, {"bufferView" : 0, "byteOffset" : 5644, "componentType" : 5123, "count" : 24, "type" : "SCALAR", "max" : [18], "min" : [0]}, {"bufferView" : 9, "byteOffset" : 0, "componentType" : 5126, "count" : 19, "type" : "VEC3", "max" : [24.365234375, 140.0390625, -20], "min" : [-56.591796875, 0, -20], "name" : "POSITION"}, {"bufferView" : 9, "byteOffset" : 12, "componentType" : 5126, "count" : 19, "type" : "VEC2", "max" : [0.5781031847000122, 1], "min" : [0, 0], "name" : "TEXCOORD_0"}, {"bufferView" : 9, "byteOffset" : 20, "componentType" : 5126, "count" : 19, "type" : "VEC3", "max" : [0, 0, -1.0000044107437134], "min" : [0, 0, -1.0000044107437134], "name" : "NORMAL"}, {"bufferView" : 0, "byteOffset" : 5692, "componentType" : 5123, "count" : 60, "type" : "SCALAR", "max" : [59], "min" : [0]}, {"bufferView" : 10, "byteOffset" : 0, "componentType" : 5126, "count" : 60, "type" : "VEC3", "max" : [128.369140625, 140.0390625, 0], "min" : [47.412109375, 0, -20], "name" : "POSITION"}, {"bufferView" : 10, "byteOffset" : 12, "componentType" : 5126, "count" : 60, "type" : "VEC2", "max" : [1, 1], "min" : [0, 0], "name" : "TEXCOORD_0"}, {"bufferView" : 10, "byteOffset" : 20, "componentType" : 5126, "count" : 60, "type" : "VEC3", "max" : [1.0000044107437134, 1.0000044107437134, 0], "min" : [-1.0000044107437134, -1.0000044107437134, 0], "name" : "NORMAL"}, {"bufferView" : 0, "byteOffset" : 5812, "componentType" : 5123, "count" : 24, "type" : "SCALAR", "max" : [19], "min" : [0]}, {"bufferView" : 11, "byteOffset" : 0, "componentType" : 5126, "count" : 20, "type" : "VEC3", "max" : [128.369140625, 140.0390625, 0], "min" : [47.412109375, 0, 0], "name" : "POSITION"}, {"bufferView" : 11, "byteOffset" : 12, "componentType" : 5126, "count" : 20, "type" : "VEC2", "max" : [0.5781031847000122, 1], "min" : [0, 0], "name" : "TEXCOORD_0"}, {"bufferView" : 11, "byteOffset" : 20, "componentType" : 5126, "count" : 20, "type" : "VEC3", "max" : [0, 0, 1.0000044107437134], "min" : [0, 0, 1.0000044107437134], "name" : "NORMAL"}, {"bufferView" : 0, "byteOffset" : 5860, "componentType" : 5123, "count" : 24, "type" : "SCALAR", "max" : [18], "min" : [0]}, {"bufferView" : 12, "byteOffset" : 0, "componentType" : 5126, "count" : 19, "type" : "VEC3", "max" : [128.369140625, 140.0390625, -20], "min" : [47.412109375, 0, -20], "name" : "POSITION"}, {"bufferView" : 12, "byteOffset" : 12, "componentType" : 5126, "count" : 19, "type" : "VEC2", "max" : [0.5781031847000122, 1], "min" : [0, 0], "name" : "TEXCOORD_0"}, {"bufferView" : 12, "byteOffset" : 20, "componentType" : 5126, "count" : 19, "type" : "VEC3", "max" : [0, 0, -1.0000044107437134], "min" : [0, 0, -1.0000044107437134], "name" : "NORMAL"}, {"bufferView" : 0, "byteOffset" : 5908, "componentType" : 5123, "count" : 72, "type" : "SCALAR", "max" : [71], "min" : [0]}, {"bufferView" : 13, "byteOffset" : 0, "componentType" : 5126, "count" : 72, "type" : "VEC3", "max" : [235.400390625, 140.0390625, 0], "min" : [151.416015625, 0, -20], "name" : "POSITION"}, {"bufferView" : 13, "byteOffset" : 12, "componentType" : 5126, "count" : 72, "type" : "VEC2", "max" : [1, 1], "min" : [0, 0], "name" : "TEXCOORD_0"}, {"bufferView" : 13, "byteOffset" : 20, "componentType" : 5126, "count" : 72, "type" : "VEC3", "max" : [1.0000044107437134, 1.0000044107437134, 0], "min" : [-1.0000044107437134, -1.0000044107437134, 0], "name" : "NORMAL"}, {"bufferView" : 0, "byteOffset" : 6052, "componentType" : 5123, "count" : 30, "type" : "SCALAR", "max" : [24], "min" : [0]}, {"bufferView" : 14, "byteOffset" : 0, "componentType" : 5126, "count" : 25, "type" : "VEC3", "max" : [235.400390625, 140.0390625, 0], "min" : [151.416015625, 0, 0], "name" : "POSITION"}, {"bufferView" : 14, "byteOffset" : 12, "componentType" : 5126, "count" : 25, "type" : "VEC2", "max" : [0.5997210741043091, 1], "min" : [0, 0], "name" : "TEXCOORD_0"}, {"bufferView" : 14, "byteOffset" : 20, "componentType" : 5126, "count" : 25, "type" : "VEC3", "max" : [0, 0, 1.0000044107437134], "min" : [0, 0, 1.0000044107437134], "name" : "NORMAL"}, {"bufferView" : 0, "byteOffset" : 6112, "componentType" : 5123, "count" : 30, "type" : "SCALAR", "max" : [21], "min" : [0]}, {"bufferView" : 15, "byteOffset" : 0, "componentType" : 5126, "count" : 22, "type" : "VEC3", "max" : [235.400390625, 140.0390625, -20], "min" : [151.416015625, 0, -20], "name" : "POSITION"}, {"bufferView" : 15, "byteOffset" : 12, "componentType" : 5126, "count" : 22, "type" : "VEC2", "max" : [0.5997210741043091, 1], "min" : [0, 0], "name" : "TEXCOORD_0"}, {"bufferView" : 15, "byteOffset" : 20, "componentType" : 5126, "count" : 22, "type" : "VEC3", "max" : [0, 0, -1.0000044107437134], "min" : [0, 0, -1.0000044107437134], "name" : "NORMAL"}, {"bufferView" : 0, "byteOffset" : 6172, "componentType" : 5123, "count" : 72, "type" : "SCALAR", "max" : [71], "min" : [0]}, {"bufferView" : 16, "byteOffset" : 0, "componentType" : 5126, "count" : 72, "type" : "VEC3", "max" : [341.845703125, 140.0390625, 0], "min" : [257.861328125, 0, -20], "name" : "POSITION"}, {"bufferView" : 16, "byteOffset" : 12, "componentType" : 5126, "count" : 72, "type" : "VEC2", "max" : [1, 1], "min" : [0, 0], "name" : "TEXCOORD_0"}, {"bufferView" : 16, "byteOffset" : 20, "componentType" : 5126, "count" : 72, "type" : "VEC3", "max" : [1.0000044107437134, 1.0000044107437134, 0], "min" : [-1.0000044107437134, -1.0000044107437134, 0], "name" : "NORMAL"}, {"bufferView" : 0, "byteOffset" : 6316, "componentType" : 5123, "count" : 30, "type" : "SCALAR", "max" : [24], "min" : [0]}, {"bufferView" : 17, "byteOffset" : 0, "componentType" : 5126, "count" : 25, "type" : "VEC3", "max" : [341.845703125, 140.0390625, 0], "min" : [257.861328125, 0, 0], "name" : "POSITION"}, {"bufferView" : 17, "byteOffset" : 12, "componentType" : 5126, "count" : 25, "type" : "VEC2", "max" : [0.5997210741043091, 1], "min" : [0, 0], "name" : "TEXCOORD_0"}, {"bufferView" : 17, "byteOffset" : 20, "componentType" : 5126, "count" : 25, "type" : "VEC3", "max" : [0, 0, 1.0000044107437134], "min" : [0, 0, 1.0000044107437134], "name" : "NORMAL"}, {"bufferView" : 0, "byteOffset" : 6376, "componentType" : 5123, "count" : 30, "type" : "SCALAR", "max" : [21], "min" : [0]}, {"bufferView" : 18, "byteOffset" : 0, "componentType" : 5126, "count" : 22, "type" : "VEC3", "max" : [341.845703125, 140.0390625, -20], "min" : [257.861328125, 0, -20], "name" : "POSITION"}, {"bufferView" : 18, "byteOffset" : 12, "componentType" : 5126, "count" : 22, "type" : "VEC2", "max" : [0.5997210741043091, 1], "min" : [0, 0], "name" : "TEXCOORD_0"}, {"bufferView" : 18, "byteOffset" : 20, "componentType" : 5126, "count" : 22, "type" : "VEC3", "max" : [0, 0, -1.0000044107437134], "min" : [0, 0, -1.0000044107437134], "name" : "NORMAL"}], "asset" : {"generator" : "Aspose.3D 24.1.0", "version" : "2.0"}, "buffers" : [{"uri" : "data:application/octet-stream;base64,", "byteLength" : 109424}], "bufferViews" : [{"buffer" : 0, "byteOffset" : 0, "byteLength" : 6436, "target" : 34963}, {"buffer" : 0, "byteOffset" : 6440, "byteLength" : 17280, "byteStride" : 32, "target" : 34962}, {"buffer" : 0, "byteOffset" : 23724, "byteLength" : 8448, "byteStride" : 32, "target" : 34962}, {"buffer" : 0, "byteOffset" : 32176, "byteLength" : 8448, "byteStride" : 32, "target" : 34962}, {"buffer" : 0, "byteOffset" : 40628, "byteLength" : 26688, "byteStride" : 32, "target" : 34962}, {"buffer" : 0, "byteOffset" : 67320, "byteLength" : 13344, "byteStride" : 32, "target" : 34962}, {"buffer" : 0, "byteOffset" : 80668, "byteLength" : 13344, "byteStride" : 32, "target" : 34962}, {"buffer" : 0, "byteOffset" : 94016, "byteLength" : 1920, "byteStride" : 32, "target" : 34962}, {"buffer" : 0, "byteOffset" : 95940, "byteLength" : 768, "byteStride" : 32, "target" : 34962}, {"buffer" : 0, "byteOffset" : 96712, "byteLength" : 768, "byteStride" : 32, "target" : 34962}, {"buffer" : 0, "byteOffset" : 97484, "byteLength" : 1920, "byteStride" : 32, "target" : 34962}, {"buffer" : 0, "byteOffset" : 99408, "byteLength" : 768, "byteStride" : 32, "target" : 34962}, {"buffer" : 0, "byteOffset" : 100180, "byteLength" : 768, "byteStride" : 32, "target" : 34962}, {"buffer" : 0, "byteOffset" : 100952, "byteLength" : 2304, "byteStride" : 32, "target" : 34962}, {"buffer" : 0, "byteOffset" : 103260, "byteLength" : 960, "byteStride" : 32, "target" : 34962}, {"buffer" : 0, "byteOffset" : 104224, "byteLength" : 960, "byteStride" : 32, "target" : 34962}, {"buffer" : 0, "byteOffset" : 105188, "byteLength" : 2304, "byteStride" : 32, "target" : 34962}, {"buffer" : 0, "byteOffset" : 107496, "byteLength" : 960, "byteStride" : 32, "target" : 34962}, {"buffer" : 0, "byteOffset" : 108460, "byteLength" : 960, "byteStride" : 32, "target" : 34962}], "meshes" : [{"primitives" : [{"attributes" : {"POSITION" : 1, "TEXCOORD_0" : 2, "NORMAL" : 3}, "indices" : 0, "mode" : 4}], "name" : ""}, {"primitives" : [{"attributes" : {"POSITION" : 5, "TEXCOORD_0" : 6, "NORMAL" : 7}, "indices" : 4, "mode" : 4}], "name" : ""}, {"primitives" : [{"attributes" : {"POSITION" : 9, "TEXCOORD_0" : 10, "NORMAL" : 11}, "indices" : 8, "mode" : 4}], "name" : ""}, {"primitives" : [{"attributes" : {"POSITION" : 13, "TEXCOORD_0" : 14, "NORMAL" : 15}, "indices" : 12, "mode" : 4}], "name" : ""}, {"primitives" : [{"attributes" : {"POSITION" : 17, "TEXCOORD_0" : 18, "NORMAL" : 19}, "indices" : 16, "mode" : 4}], "name" : ""}, {"primitives" : [{"attributes" : {"POSITION" : 21, "TEXCOORD_0" : 22, "NORMAL" : 23}, "indices" : 20, "mode" : 4}], "name" : ""}, {"primitives" : [{"attributes" : {"POSITION" : 25, "TEXCOORD_0" : 26, "NORMAL" : 27}, "indices" : 24, "mode" : 4}], "name" : ""}, {"primitives" : [{"attributes" : {"POSITION" : 29, "TEXCOORD_0" : 30, "NORMAL" : 31}, "indices" : 28, "mode" : 4}], "name" : ""}, {"primitives" : [{"attributes" : {"POSITION" : 33, "TEXCOORD_0" : 34, "NORMAL" : 35}, "indices" : 32, "mode" : 4}], "name" : ""}, {"primitives" : [{"attributes" : {"POSITION" : 37, "TEXCOORD_0" : 38, "NORMAL" : 39}, "indices" : 36, "mode" : 4}], "name" : ""}, {"primitives" : [{"attributes" : {"POSITION" : 41, "TEXCOORD_0" : 42, "NORMAL" : 43}, "indices" : 40, "mode" : 4}], "name" : ""}, {"primitives" : [{"attributes" : {"POSITION" : 45, "TEXCOORD_0" : 46, "NORMAL" : 47}, "indices" : 44, "mode" : 4}], "name" : ""}, {"primitives" : [{"attributes" : {"POSITION" : 49, "TEXCOORD_0" : 50, "NORMAL" : 51}, "indices" : 48, "mode" : 4}], "name" : ""}, {"primitives" : [{"attributes" : {"POSITION" : 53, "TEXCOORD_0" : 54, "NORMAL" : 55}, "indices" : 52, "mode" : 4}], "name" : ""}, {"primitives" : [{"attributes" : {"POSITION" : 57, "TEXCOORD_0" : 58, "NORMAL" : 59}, "indices" : 56, "mode" : 4}], "name" : ""}, {"primitives" : [{"attributes" : {"POSITION" : 61, "TEXCOORD_0" : 62, "NORMAL" : 63}, "indices" : 60, "mode" : 4}], "name" : ""}, {"primitives" : [{"attributes" : {"POSITION" : 65, "TEXCOORD_0" : 66, "NORMAL" : 67}, "indices" : 64, "mode" : 4}], "name" : ""}, {"primitives" : [{"attributes" : {"POSITION" : 69, "TEXCOORD_0" : 70, "NORMAL" : 71}, "indices" : 68, "mode" : 4}], "name" : ""}], "nodes" : [{"mesh" : 0, "name" : "C"}, {"mesh" : 1, "name" : "Cap_1"}, {"mesh" : 2, "name" : "Cap_2"}, {"mesh" : 3, "name" : "O"}, {"mesh" : 4, "name" : "Cap_1_1"}, {"mesh" : 5, "name" : "Cap_2_1"}, {"mesh" : 6, "name" : "F"}, {"mesh" : 7, "name" : "Cap_1_2"}, {"mesh" : 8, "name" : "Cap_2_2"}, {"mesh" : 9, "name" : "F_1"}, {"mesh" : 10, "name" : "Cap_1_3"}, {"mesh" : 11, "name" : "Cap_2_3"}, {"mesh" : 12, "name" : "E"}, {"mesh" : 13, "name" : "Cap_1_4"}, {"mesh" : 14, "name" : "Cap_2_4"}, {"mesh" : 15, "name" : "E_1"}, {"mesh" : 16, "name" : "Cap_1_5"}, {"mesh" : 17, "name" : "Cap_2_5"}], "scene" : 0, "scenes" : [{"nodes" : [0, 1, 2, 3, 4, 5, 6, 7, 8, 9, 10, 11, 12, 13, 14, 15, 16, 17]}]}