{"accessors" : [{"bufferView" : 0, "byteOffset" : 0, "componentType" : 5123, "count" : 3888, "type" : "SCALAR", "max" : [3243], "min" : [0]}, {"bufferView" : 1, "byteOffset" : 0, "componentType" : 5126, "count" : 3244, "type" : "VEC3", "max" : [-431.4039001464844, 41.53205490112305, 752.8283081054688], "min" : [-685.813232421875, 4.006999492645264, 498.4189758300781], "name" : "POSITION"}, {"bufferView" : 1, "byteOffset" : 12, "componentType" : 5126, "count" : 3244, "type" : "VEC2", "max" : [1, 1], "min" : [0, 0], "name" : "TEXCOORD_0"}, {"bufferView" : 1, "byteOffset" : 20, "componentType" : 5126, "count" : 3244, "type" : "VEC3", "max" : [1.0000044107437134, 0.9848191142082214, 1.0000044107437134], "min" : [-1.0000044107437134, -0.9848190546035767, -1.0000044107437134], "name" : "NORMAL"}], "asset" : {"generator" : "Aspose.3D 24.1.0", "version" : "2.0"}, "buffers" : [{"uri" : "data:application/octet-stream;base64,", "byteLength" : 132200}], "bufferViews" : [{"buffer" : 0, "byteOffset" : 0, "byteLength" : 7776, "target" : 34963}, {"buffer" : 0, "byteOffset" : 7780, "byteLength" : 124416, "byteStride" : 32, "target" : 34962}], "meshes" : [{"primitives" : [{"attributes" : {"POSITION" : 1, "TEXCOORD_0" : 2, "NORMAL" : 3}, "indices" : 0, "mode" : 4}], "name" : ""}], "nodes" : [{"mesh" : 0, "name" : "Torus"}], "scene" : 0, "scenes" : [{"nodes" : [0]}]}