{"accessors" : [{"bufferView" : 0, "byteOffset" : 0, "componentType" : 5123, "count" : 3888, "type" : "SCALAR", "max" : [3254], "min" : [0]}, {"bufferView" : 1, "byteOffset" : 0, "componentType" : 5126, "count" : 3255, "type" : "VEC3", "max" : [162.51492309570312, 350.2578125, 25.163227081298828], "min" : [1.6706663370132446, 191.8571319580078, -25.163227081298828], "name" : "POSITION"}, {"bufferView" : 1, "byteOffset" : 12, "componentType" : 5126, "count" : 3255, "type" : "VEC2", "max" : [1, 1], "min" : [0, 0], "name" : "TEXCOORD_0"}, {"bufferView" : 1, "byteOffset" : 20, "componentType" : 5126, "count" : 3255, "type" : "VEC3", "max" : [1.0000044107437134, 0.9848120212554932, 1.0000044107437134], "min" : [-1.0000044107437134, -0.9848120212554932, -1.0000044107437134], "name" : "NORMAL"}, {"bufferView" : 0, "byteOffset" : 7776, "componentType" : 5123, "count" : 1584, "type" : "SCALAR", "max" : [1332], "min" : [0]}, {"bufferView" : 2, "byteOffset" : 0, "componentType" : 5126, "count" : 1333, "type" : "VEC3", "max" : [145.23216247558594, 297.0262145996094, 145.23216247558594], "min" : [-145.23216247558594, 6.561872482299805, -145.23216247558594], "name" : "POSITION"}, {"bufferView" : 2, "byteOffset" : 12, "componentType" : 5126, "count" : 1333, "type" : "VEC2", "max" : [1, 1], "min" : [0, 0], "name" : "TEXCOORD_0"}, {"bufferView" : 2, "byteOffset" : 20, "componentType" : 5126, "count" : 1333, "type" : "VEC3", "max" : [1.0000044107437134, 1.0000044107437134, 1.0000044107437134], "min" : [-1.0000044107437134, -1.0000044107437134, -1.0000044107437134], "name" : "NORMAL"}, {"bufferView" : 0, "byteOffset" : 10944, "componentType" : 5123, "count" : 60600, "type" : "SCALAR", "max" : [50707], "min" : [0]}, {"bufferView" : 3, "byteOffset" : 0, "componentType" : 5126, "count" : 50708, "type" : "VEC3", "max" : [62.56270980834961, 471.7030029296875, 62.56270980834961], "min" : [-62.56270980834961, 266.85009765625, -62.56270980834961], "name" : "POSITION"}, {"bufferView" : 3, "byteOffset" : 12, "componentType" : 5126, "count" : 50708, "type" : "VEC2", "max" : [1, 1], "min" : [0, 0], "name" : "TEXCOORD_0"}, {"bufferView" : 3, "byteOffset" : 20, "componentType" : 5126, "count" : 50708, "type" : "VEC3", "max" : [1.0000044107437134, 1.0000044107437134, 1.0000044107437134], "min" : [-1.0000044107437134, -1.0000044107437134, -1.0000044107437134], "name" : "NORMAL"}, {"bufferView" : 0, "byteOffset" : 132144, "componentType" : 5123, "count" : 432, "type" : "SCALAR", "max" : [423], "min" : [0]}, {"bufferView" : 4, "byteOffset" : 0, "componentType" : 5126, "count" : 424, "type" : "VEC3", "max" : [-40.58164596557617, 262.73370361328125, 32.04011154174805], "min" : [-288.15924072265625, 116.93773651123047, -35.48572540283203], "name" : "POSITION"}, {"bufferView" : 4, "byteOffset" : 12, "componentType" : 5126, "count" : 424, "type" : "VEC2", "max" : [1, 1], "min" : [0, 0], "name" : "TEXCOORD_0"}, {"bufferView" : 4, "byteOffset" : 20, "componentType" : 5126, "count" : 424, "type" : "VEC3", "max" : [0.9417553544044495, 0.9640385508537292, 0.9998770356178284], "min" : [-0.46148666739463806, -0.887117326259613, -0.9998770356178284], "name" : "NORMAL"}], "asset" : {"generator" : "Aspose.3D 24.1.0", "version" : "2.0"}, "buffers" : [{"uri" : "data:application/octet-stream;base64,", "byteLength" : 2261156}], "bufferViews" : [{"buffer" : 0, "byteOffset" : 0, "byteLength" : 133008, "target" : 34963}, {"buffer" : 0, "byteOffset" : 133012, "byteLength" : 124416, "byteStride" : 32, "target" : 34962}, {"buffer" : 0, "byteOffset" : 257432, "byteLength" : 50688, "byteStride" : 32, "target" : 34962}, {"buffer" : 0, "byteOffset" : 308124, "byteLength" : 1939200, "byteStride" : 32, "target" : 34962}, {"buffer" : 0, "byteOffset" : 2247328, "byteLength" : 13824, "byteStride" : 32, "target" : 34962}], "meshes" : [{"primitives" : [{"attributes" : {"POSITION" : 1, "TEXCOORD_0" : 2, "NORMAL" : 3}, "indices" : 0, "mode" : 4}], "name" : ""}, {"primitives" : [{"attributes" : {"POSITION" : 5, "TEXCOORD_0" : 6, "NORMAL" : 7}, "indices" : 4, "mode" : 4}], "name" : ""}, {"primitives" : [{"attributes" : {"POSITION" : 9, "TEXCOORD_0" : 10, "NORMAL" : 11}, "indices" : 8, "mode" : 4}], "name" : ""}, {"primitives" : [{"attributes" : {"POSITION" : 13, "TEXCOORD_0" : 14, "NORMAL" : 15}, "indices" : 12, "mode" : 4}], "name" : ""}], "nodes" : [{"mesh" : 0, "name" : "Torus"}, {"mesh" : 1, "name" : "Sphere"}, {"mesh" : 2, "name" : "Cylinder.1"}, {"mesh" : 3, "name" : "Cylinder"}], "scene" : 0, "scenes" : [{"nodes" : [0, 1, 2, 3]}]}